# xmcd CD database file
#
# Track frame offsets:
#	180
#	15406
#	39872
#	58750
#	76943
#	101626
#	115507
#	132016
#	151040
#	168656
#	206596
#	237861
#
# Disc length: 3531 seconds
#
# Revision: 0
# Processed by: cddbd v1.5PL3 Copyright (c) Steve Scherf et al.
# Submitted via: CDex 1.51
#
DISCID=860dc90c
DTITLE=Various Artist - Spain
DYEAR=2000
DGENRE=Jazz
TTITLE0=Spain
TTITLE1=I Can't Get Started
TTITLE2=Joy Spring (Ala Oscar)
TTITLE3=All The Things You Are
TTITLE4=You Are The Sunshine Of My Life
TTITLE5=Irlandaise
TTITLE6=All Of Me
TTITLE7=Oh Lady, Be Good
TTITLE8=But Not For Me
TTITLE9=Sentimentale
TTITLE10=My Funny Valentine
TTITLE11=Wave
EXTD=YEAR: 2000
EXTT0=
EXTT1=
EXTT2=
EXTT3=
EXTT4=
EXTT5=
EXTT6=
EXTT7=
EXTT8=
EXTT9=
EXTT10=
EXTT11=
PLAYORDER=
